<?xml version="1.0" standalone="no"?>
<!DOCTYPE svg PUBLIC "-//W3C//DTD SVG 20010904//EN"
 "http://www.w3.org/TR/2001/REC-SVG-20010904/DTD/svg10.dtd">
<svg version="1.0" xmlns="http://www.w3.org/2000/svg"
 width="260.000000pt" height="260.000000pt" viewBox="0 0 260.000000 260.000000"
 preserveAspectRatio="xMidYMid meet">
<metadata>
Created by potrace 1.11, written by Peter Selinger 2001-2013
</metadata>
<g transform="translate(0.000000,260.000000) scale(0.100000,-0.100000)"
fill="#000000" stroke="none">
<path d="M419 2592 l-36 -3 0 -1290 0 -1289 26 -1 c35 0 1704 0 1761 0 l45 1
-1 123 c-1 67 -2 125 -3 130 0 4 -244 7 -540 7 l-539 0 -1 510 0 510 390 0
389 0 0 133 0 132 -389 -2 -390 -2 0 390 0 389 463 0 463 0 -1 131 -1 131
-800 2 c-440 0 -816 0 -836 -2z"/>
</g>
</svg>
